<svg id="Слой_1" data-name="Слой 1" xmlns="http://www.w3.org/2000/svg" viewBox="0 0 95 130.38"><defs><style>.cls-1{fill:#ffffff;fill-rule:evenodd;opacity:1;isolation:isolate;}</style></defs><title>solution-2</title><path class="cls-1" d="M717.66,364.5c2.48-26.86-18.39-41.63-34.63-41.63a2.1,2.1,0,0,1-.51-.06,2.13,2.13,0,0,1-.91.2c-8,0-16.7,4.64-23.44,12.19s-11.27,17.66-11.27,28.22a2.12,2.12,0,0,1-2.12,2.12,2.17,2.17,0,0,1-.62-.1,9,9,0,0,0-4.71,10l2.16,9.07a5.32,5.32,0,0,0,4.55,4.08,1.82,1.82,0,0,1,.3-.11,2.11,2.11,0,0,1,1.34.05l.42-.1.08.38a2.08,2.08,0,0,1,.79,1.12c3.42,11.93,10.08,21.41,18.28,26.53a2.14,2.14,0,0,1,.94,2.29,2.19,2.19,0,0,1,.36,1.18v15.92L643,448.78a2.12,2.12,0,0,1-1.91-3.79l23.34-11.74V419.94a1.51,1.51,0,0,1,0-.3c-8.54-5.6-15.23-15.19-18.92-26.8a9.42,9.42,0,0,1-8-7.21l-2.15-9.07a13.34,13.34,0,0,1,7.35-15.1A47.8,47.8,0,0,1,655,332.37c7.27-8.14,17-13.6,26.6-13.6a2.1,2.1,0,0,1,.51.06,2.13,2.13,0,0,1,.91-.2c18,0,40.46,15.8,39,44.1a12.84,12.84,0,0,1,6.31,14.44l-1.9,7.48a9.73,9.73,0,0,1-7.34,7.11c-3.74,12.72-11,23.14-20.37,28.77a2.12,2.12,0,1,1-2.19-3.63c8-4.8,14.54-13.78,18.14-25.19l-.07,0,1-4.11a5.48,5.48,0,0,0,6.67-4l1.91-7.49a8.61,8.61,0,0,0-3.32-9.1,2.11,2.11,0,0,1-3.3-1.43l-.16,0Zm-13.33,68.09a2.12,2.12,0,1,0-1.6,3.93l24.35,9.89a2.12,2.12,0,0,0,1.6-3.93ZM671.24,397a2.13,2.13,0,0,1,3,.58,12,12,0,0,0,18.95,0,2.12,2.12,0,1,1,3.52,2.36,16.24,16.24,0,0,1-26,0A2.12,2.12,0,0,1,671.24,397Zm43.14-37.72a2.12,2.12,0,0,0-1.66-.81H652.07a2.14,2.14,0,0,0-1.67.81,2.12,2.12,0,0,0-.4,1.8l3.61,15.27a2.11,2.11,0,0,0,2.06,1.63h16.54a2.12,2.12,0,0,0,1.76-.93l5.3-7.85a2.12,2.12,0,1,0-3.51-2.37l-4.67,6.91H657.35l-2.6-11H710l-2.61,11H693.7L689,366.85a2.12,2.12,0,0,0-3.52,2.37l5.3,7.85a2.15,2.15,0,0,0,1.76.93h16.54a2.11,2.11,0,0,0,2.06-1.63l3.61-15.27A2.12,2.12,0,0,0,714.38,359.3Z" transform="translate(-635 -318.63)"/></svg>