<svg id="Слой_1" data-name="Слой 1" xmlns="http://www.w3.org/2000/svg" viewBox="0 0 168 150.26"><defs><style>.cls-1{opacity:1;}.cls-2,.cls-3{fill:#fff;}.cls-2{fill-rule:evenodd;}</style></defs><title>solution-1</title><g class="cls-1"><path class="cls-2" d="M713.32,374.54H652.63a1.58,1.58,0,0,0-1.58,1.58v11.33a1.58,1.58,0,0,0,1.58,1.58h60.69a1.57,1.57,0,0,0,1.57-1.58V376.12A1.57,1.57,0,0,0,713.32,374.54Zm-60.69-5.25a6.83,6.83,0,0,0-6.83,6.83v11.33a6.83,6.83,0,0,0,6.83,6.83h60.69a6.83,6.83,0,0,0,6.83-6.83V376.12a6.83,6.83,0,0,0-6.83-6.83Z" transform="translate(-599 -309)"/><circle class="cls-3" cx="59.3" cy="72.78" r="4.69"/><path class="cls-2" d="M713.32,402.66H652.63a1.57,1.57,0,0,0-1.58,1.57v11.34a1.57,1.57,0,0,0,1.58,1.57h60.69a1.57,1.57,0,0,0,1.57-1.57V404.23A1.57,1.57,0,0,0,713.32,402.66Zm-60.69-5.26a6.83,6.83,0,0,0-6.83,6.83v11.34a6.82,6.82,0,0,0,6.83,6.82h60.69a6.82,6.82,0,0,0,6.83-6.82V404.23a6.83,6.83,0,0,0-6.83-6.83Z" transform="translate(-599 -309)"/><circle class="cls-3" cx="59.3" cy="100.9" r="4.69"/><path class="cls-2" d="M713.32,430.77H652.63a1.58,1.58,0,0,0-1.58,1.58v11.33a1.58,1.58,0,0,0,1.58,1.58h60.69a1.57,1.57,0,0,0,1.57-1.58V432.35A1.57,1.57,0,0,0,713.32,430.77Zm-60.69-5.25a6.83,6.83,0,0,0-6.83,6.83v11.33a6.83,6.83,0,0,0,6.83,6.83h60.69a6.83,6.83,0,0,0,6.83-6.83V432.35a6.83,6.83,0,0,0-6.83-6.83Z" transform="translate(-599 -309)"/><circle class="cls-3" cx="59.3" cy="129.01" r="4.69"/><path class="cls-2" d="M665.61,448.63a2.62,2.62,0,0,1,2.62,2.63v5.37a2.63,2.63,0,1,1-5.25,0v-5.37A2.63,2.63,0,0,1,665.61,448.63Z" transform="translate(-599 -309)"/><path class="cls-2" d="M702.16,448.63a2.62,2.62,0,0,1,2.62,2.63v5.37a2.63,2.63,0,1,1-5.25,0v-5.37A2.63,2.63,0,0,1,702.16,448.63Z" transform="translate(-599 -309)"/><path class="cls-3" d="M599,381.07a27.84,27.84,0,0,1,27.89-27.89h.25c-.06-.91-.09-1.82-.09-2.74s0-1.68.08-2.52a41.44,41.44,0,0,1,77.31-18.11,27.91,27.91,0,0,1,40,25.14c0,.44,0,.89,0,1.33,0,.84-.12,1.67-.23,2.48.75.07,1.49.17,2.23.31a25.15,25.15,0,0,1-3.26,49.86v0H733v-5.25h9.41l.51,0a19.9,19.9,0,0,0,.82-39.69l-5.47-.5.74-5.44a22.65,22.65,0,0,0-32.24-23.51l-4.4,2.12-2.44-4.23a36.18,36.18,0,0,0-67.57,18c0,.8,0,1.6.07,2.4l.37,5.64-5.65-.05h-.21a22.64,22.64,0,0,0-2.49,45.14l1.24.14h9.85V409H623.83v-.16A27.91,27.91,0,0,1,599,381.07Z" transform="translate(-599 -309)"/></g></svg>