<svg id="Слой_1" data-name="Слой 1" xmlns="http://www.w3.org/2000/svg" viewBox="0 0 451.74 411.02"><defs><style>.cls-1{fill:#e24c4b;}.cls-2{fill:#fff;}</style></defs><title>warning</title><path class="cls-1" d="M903.32,529.38,719.86,203.69c-15.65-28.44-58.31-28.44-74,0L462.43,529.38c-15.64,28.45,4.27,64,37,64H864.92C899.06,592,919,557.83,903.32,529.38Z" transform="translate(-457 -182.36)"/><path class="cls-2" d="M682.88,225,866.35,550.71H499.41L682.88,225Z" transform="translate(-457 -182.36)"/><path class="cls-1" d="M653,374.36l11.38,75.38a18.5,18.5,0,0,0,18.49,15.64h0c8.53,0,17.07-7.11,18.49-15.64l11.38-75.38c2.84-18.49-11.38-34.13-29.87-34.13h0C664.39,340.23,651.59,355.87,653,374.36Z" transform="translate(-457 -182.36)"/><circle class="cls-1" cx="225.88" cy="315.73" r="17.07"/></svg>